<svg xmlns:ev="http://www.w3.org/2001/xml-events" xmlns="http://www.w3.org/2000/svg" height="804" viewBox="0 0 1132 804" width="1132" xmlns:xlink="http://www.w3.org/1999/xlink"><defs/><g transform="translate(5.5,5.5)" id="page1"><rect y="0" height="794" fill="none" width="1123" x="0"/><g transform="translate(291.000000,136.550000)" id="shape1"><path d="M.0,6.2L.0,149.3L.0,149.3C.0,152.7,13.9,155.5,31.0,155.5C48.1,155.5,62.0,152.7,62.0,149.3L62.0,6.2L62.0,6.2C62.0,2.8,48.1,.0,31.0,.0C13.9,.0,.0,2.8,.0,6.2z" fill="#ffffff" fill-rule="nonzero"/><path stroke-width="1" d="M.0,6.2L.0,149.3L.0,149.3C.0,152.7,13.9,155.5,31.0,155.5C48.1,155.5,62.0,152.7,62.0,149.3L62.0,6.2L62.0,6.2C62.0,2.8,48.1,.0,31.0,.0C13.9,.0,.0,2.8,.0,6.2zM62.0,6.2C62.0,9.6,48.1,12.4,31.0,12.4C13.9,12.4,.0,9.6,.0,6.2" fill="none" stroke="#101843"/><text style="fill:#191919;font-family:Arial;font-size:12.00pt" xml:space="preserve"><tspan y="88.9" x="25.5">A</tspan></text></g><g transform="translate(385.000000,136.050000)" id="shape2"><path d="M.0,6.2L.0,150.3L.0,150.3C.0,153.7,13.9,156.5,31.0,156.5C48.1,156.5,62.0,153.7,62.0,150.3L62.0,6.2L62.0,6.2C62.0,2.8,48.1,.0,31.0,.0C13.9,.0,.0,2.8,.0,6.2z" fill="#ffffff" fill-rule="nonzero"/><path stroke-width="1" d="M.0,6.2L.0,150.3L.0,150.3C.0,153.7,13.9,156.5,31.0,156.5C48.1,156.5,62.0,153.7,62.0,150.3L62.0,6.2L62.0,6.2C62.0,2.8,48.1,.0,31.0,.0C13.9,.0,.0,2.8,.0,6.2zM62.0,6.2C62.0,9.6,48.1,12.4,31.0,12.4C13.9,12.4,.0,9.6,.0,6.2" fill="none" stroke="#101843"/><text style="fill:#191919;font-family:Arial;font-size:12.00pt" xml:space="preserve"><tspan y="89.4" x="25.5">B</tspan></text></g><g transform="translate(101.000000,188.000000)" id="shape3"><path d="M133.0,79.8L133.0,.0L.0,.0L.0,79.8L133.0,79.8z" stroke-width="1" fill="#ffffff" stroke="#101843" fill-rule="nonzero"/><text style="fill:#191919;font-family:Arial;font-size:12.00pt" xml:space="preserve"><tspan y="46.5" x="50.5">Skid</tspan></text></g><g transform="translate(167.500000,188.000000)" id="shape4"><path stroke-width="1" d="M.0,.0L.0,-75.0L154.5,-75.0L154.5,-57.5" fill="none" stroke="#000000"/><path stroke-width="1" d="M157.5,-57.5L154.5,-51.5L151.5,-57.5L157.5,-57.5" stroke-linecap="round" fill="#000000" stroke="#000000"/></g><g transform="translate(167.500000,188.000000)" id="shape5"><path stroke-width="1" d="M.0,.0L.0,-75.0L248.5,-75.0L248.5,-58.0" fill="none" stroke="#000000"/><path stroke-width="1" d="M251.5,-58.0L248.5,-52.0L245.5,-58.0L251.5,-58.0" stroke-linecap="round" fill="#000000" stroke="#000000"/></g><g transform="translate(416.000000,292.550000)" id="shape6"><path stroke-width="1" d="M.0,.0L.0,47.5L-248.5,47.5L-248.5,-18.8" fill="none" stroke="#000000"/><path stroke-width="1" d="M-251.5,-18.8L-248.5,-24.8L-245.5,-18.8L-251.5,-18.8" stroke-linecap="round" fill="#000000" stroke="#000000"/></g><g transform="translate(322.000000,292.050000)" id="shape7"><path stroke-width="1" d="M.0,.0L.0,48.0L-154.5,48.0L-154.5,-18.3" fill="none" stroke="#000000"/><path stroke-width="1" d="M-157.5,-18.3L-154.5,-24.3L-151.5,-18.3L-157.5,-18.3" stroke-linecap="round" fill="#000000" stroke="#000000"/></g><g transform="matrix(0.000000,1.000000,-1.000000,0.000000,331.783000,307.900000)" id="shape8"><path d="M.0,15.0L.0,5.0L20.0,15.0L20.0,5.0L.0,15.0zM6.0,2.5L14.0,2.5L14.0,2.5C13.3,1.0,11.8,.0,10.0,.0C8.2,.0,6.7,1.0,6.0,2.5z" fill="#ffffff" fill-rule="nonzero"/><path stroke-width="0.3199999928474426" d="M.0,15.0L.0,5.0L20.0,15.0L20.0,5.0L.0,15.0zM10.0,10.0L10.0,2.5M6.0,2.5L14.0,2.5L14.0,2.5C13.3,1.0,11.8,.0,10.0,.0C8.2,.0,6.7,1.0,6.0,2.5z" fill="none" stroke="#000000"/></g><g transform="matrix(0.000000,-1.000000,1.000000,0.000000,405.783000,327.900000)" id="shape9"><path d="M.0,15.0L.0,5.0L20.0,15.0L20.0,5.0L.0,15.0zM6.0,2.5L14.0,2.5L14.0,2.5C13.3,1.0,11.8,.0,10.0,.0C8.2,.0,6.7,1.0,6.0,2.5z" fill="#ffffff" fill-rule="nonzero"/><path stroke-width="0.3199999928474426" d="M.0,15.0L.0,5.0L20.0,15.0L20.0,5.0L.0,15.0zM10.0,10.0L10.0,2.5M6.0,2.5L14.0,2.5L14.0,2.5C13.3,1.0,11.8,.0,10.0,.0C8.2,.0,6.7,1.0,6.0,2.5z" fill="none" stroke="#000000"/></g><g transform="translate(383.000000,304.900000)" id="shape10"><text style="fill:#191919;font-family:Arial;font-size:7.00pt" xml:space="preserve"><tspan y="16.0" x="48.5">CV02</tspan></text></g><g transform="translate(236.000000,304.900000)" id="shape11"><text style="fill:#191919;font-family:Arial;font-size:7.00pt" xml:space="preserve"><tspan y="16.0" x="48.5">CV01</tspan></text></g><g transform="translate(297.942000,226.000000)" id="shape12"><text style="fill:#191919;font-family:Arial;font-size:10.00pt" xml:space="preserve"><tspan y="21.0" x="4.0">{{FT01 Flow.PV}} {{FT01 </tspan><tspan y="37.0" x="4.0">Flow.unit}}</tspan><tspan y="53.0" x="4.0">{{UV01.PV}} {{UV01.unit}}</tspan></text></g><g transform="translate(390.885000,234.000000)" id="shape13"><text style="fill:#191919;font-family:Arial;font-size:10.00pt" xml:space="preserve"><tspan y="21.0" x="4.1">{{FT02 Flow.PV}} {{FT02 Flow.unit}}</tspan><tspan y="37.0" x="4.1">{{UV02.PV}} {{UV02.unit}}</tspan></text></g></g></svg>
